<?xml version="1.0" standalone="no"?>
<!DOCTYPE svg PUBLIC "-//W3C//DTD SVG 20010904//EN"
 "http://www.w3.org/TR/2001/REC-SVG-20010904/DTD/svg10.dtd">
<svg version="1.0" xmlns="http://www.w3.org/2000/svg"
 width="300.000000pt" height="300.000000pt" viewBox="0 0 300.000000 300.000000"
 preserveAspectRatio="xMidYMid meet">
<metadata>
Created by potrace 1.11, written by Peter Selinger 2001-2013
</metadata>
<g transform="translate(0.000000,300.000000) scale(0.100000,-0.100000)"
fill="#000000" stroke="none">
<path d="M428 1818 c-3 -302 -4 -325 -23 -357 -33 -56 -68 -76 -135 -76 -68 0
-97 17 -145 83 -16 22 -35 41 -40 41 -6 1 -27 -10 -48 -25 l-38 -25 18 -31
c25 -42 91 -105 132 -124 47 -23 150 -30 206 -14 61 17 127 77 156 142 22 52
23 62 25 381 l3 327 -54 0 -54 0 -3 -322z"/>
<path d="M719 2138 c-1 -2 -2 -193 -3 -426 l-1 -423 228 1 c179 1 238 5 275
17 116 39 173 109 178 217 4 83 -37 155 -109 192 l-28 15 25 20 c39 30 70 105
68 164 -1 94 -40 152 -132 197 -42 21 -61 23 -272 26 -126 2 -229 2 -229 0z
m459 -122 c46 -24 72 -71 66 -119 -6 -53 -28 -82 -78 -107 -37 -17 -62 -20
-192 -20 l-150 0 0 135 -1 135 161 -3 c129 -3 168 -7 194 -21z m-3 -361 c77
-20 115 -61 115 -125 0 -47 -23 -83 -72 -110 -40 -23 -54 -25 -219 -28 l-176
-4 2 138 c1 77 3 140 4 140 6 5 323 -5 346 -11z"/>
<path d="M1544 1715 l0 -425 53 0 53 0 1 113 c0 61 0 135 -1 164 l-1 52 106 3
c59 2 112 0 119 -4 7 -4 69 -79 137 -168 l123 -160 68 0 69 0 -43 58 c-24 31
-47 62 -53 68 -5 6 -21 26 -35 44 -14 18 -50 65 -80 103 l-55 71 67 34 c105
52 150 127 142 236 -4 68 -23 106 -75 157 -66 65 -125 77 -379 78 l-216 2 0
-426z m480 299 c59 -31 81 -65 81 -129 0 -67 -23 -101 -90 -134 -45 -23 -61
-25 -194 -26 -80 -1 -151 0 -158 3 -9 3 -12 45 -12 157 l1 154 166 -2 c147 -2
172 -4 206 -23z"/>
<path d="M2374 1715 l0 -425 313 0 313 0 0 50 0 50 -258 0 -259 0 1 138 1 137
223 1 c243 1 242 0 236 58 -1 17 -3 34 -3 38 -1 4 -103 9 -228 10 l-228 3 -1
131 -1 132 247 0 c136 -1 252 2 257 5 9 6 10 24 4 85 -1 9 -70 12 -309 12
l-307 0 -1 -425z"/>
<path d="M735 1035 l0 -95 56 0 c42 0 56 4 56 14 0 10 -6 12 -16 7 -19 -9 -32
-8 -48 2 -16 10 -16 149 0 159 7 4 -1 8 -18 8 l-30 0 0 -95z"/>
<path d="M967 1074 c4 -110 18 -134 82 -134 36 0 71 30 72 63 0 12 2 46 3 75
1 41 -1 52 -14 52 -12 0 -14 -13 -12 -74 4 -78 -9 -106 -48 -106 -34 0 -52 42
-48 115 3 60 1 65 -17 65 -18 0 -20 -6 -18 -56z"/>
<path d="M1269 1111 c11 -11 27 -33 35 -49 15 -28 14 -32 -11 -68 -14 -22 -31
-42 -37 -46 -6 -4 2 -8 18 -8 16 0 27 3 23 6 -8 8 20 64 32 64 4 0 16 -16 27
-35 15 -29 24 -35 49 -34 17 1 22 3 13 6 -10 2 -18 8 -18 12 0 5 -11 25 -25
45 l-26 38 21 34 c12 19 29 38 38 44 14 8 12 9 -10 10 -20 0 -28 -5 -28 -17 0
-10 -7 -26 -14 -36 -13 -16 -14 -16 -30 7 -9 14 -16 30 -16 36 0 5 -13 10 -30
10 -30 0 -30 0 -11 -19z"/>
<path d="M1547 1078 c1 -29 2 -63 3 -75 1 -51 59 -77 115 -51 29 13 38 39 38
112 0 28 5 54 11 58 6 4 0 8 -14 8 -25 0 -25 -1 -25 -79 0 -44 -3 -82 -6 -85
-13 -13 -55 -12 -71 2 -22 19 -26 147 -5 155 6 3 -2 6 -18 6 -30 1 -30 1 -28
-51z"/>
<path d="M1865 1035 c0 -89 1 -95 20 -95 18 0 20 5 17 40 -4 42 8 52 30 24 38
-47 59 -64 80 -64 l22 0 -21 15 c-12 9 -32 29 -44 46 -19 28 -20 31 -5 48 36
40 7 81 -57 81 l-42 0 0 -95z m78 64 c15 -24 0 -69 -23 -69 -17 0 -20 7 -20
46 0 37 3 45 16 42 9 -2 21 -10 27 -19z"/>
<path d="M2106 1116 c33 -23 67 -100 62 -140 -4 -34 -3 -36 27 -36 18 0 25 3
18 8 -17 11 -10 85 11 117 10 15 26 35 37 46 19 19 19 19 -6 19 -15 0 -25 -6
-25 -15 0 -8 -8 -28 -19 -45 l-19 -31 -21 34 c-11 19 -21 39 -21 46 0 6 -15
11 -32 11 -31 0 -31 -1 -12 -14z"/>
<path d="M0 1035 c0 -13 34 -15 267 -13 202 2 267 6 271 16 3 9 -55 12 -267
12 -236 0 -271 -2 -271 -15z"/>
<path d="M2463 1035 c0 -13 37 -15 269 -15 232 0 268 2 268 15 0 13 -36 15
-268 15 -232 0 -269 -2 -269 -15z"/>
</g>
</svg>
